<mxfile host="app.diagrams.net" agent="Mozilla/5.0 (Windows NT 10.0; Win64; x64) AppleWebKit/537.36 (KHTML, like Gecko) Chrome/135.0.0.0 Safari/537.36 Edg/135.0.0.0" version="26.2.9">
  <diagram name="Seite-1" id="0klyjq63ZwcZc5Z0Kw9f">
    <mxGraphModel dx="1020" dy="456" grid="1" gridSize="10" guides="1" tooltips="1" connect="1" arrows="1" fold="1" page="1" pageScale="1" pageWidth="827" pageHeight="1169" math="0" shadow="0">
      <root>
        <mxCell id="0" />
        <mxCell id="1" parent="0" />
        <mxCell id="P1OJqee6ue2MYOzZ1ihU-2" value="Measurement" style="swimlane;fontStyle=1;align=center;verticalAlign=top;childLayout=stackLayout;horizontal=1;startSize=26;horizontalStack=0;resizeParent=1;resizeParentMax=0;resizeLast=0;collapsible=1;marginBottom=0;whiteSpace=wrap;html=1;" parent="1" vertex="1">
          <mxGeometry x="79" y="438" width="200" height="128" as="geometry" />
        </mxCell>
        <mxCell id="P1OJqee6ue2MYOzZ1ihU-3" value="timestamp: DateTime&lt;div&gt;&lt;div&gt;latitude: double&lt;/div&gt;&lt;div&gt;&lt;div&gt;longitude: double&lt;/div&gt;&lt;div&gt;&lt;div&gt;gpsAltitude: double&lt;/div&gt;&lt;div&gt;&lt;span style=&quot;background-color: transparent; color: light-dark(rgb(0, 0, 0), rgb(255, 255, 255));&quot;&gt;altimeterHeight: double?&lt;/span&gt;&lt;/div&gt;&lt;/div&gt;&lt;/div&gt;&lt;/div&gt;" style="text;strokeColor=none;fillColor=none;align=left;verticalAlign=top;spacingLeft=4;spacingRight=4;overflow=hidden;rotatable=0;points=[[0,0.5],[1,0.5]];portConstraint=eastwest;whiteSpace=wrap;html=1;" parent="P1OJqee6ue2MYOzZ1ihU-2" vertex="1">
          <mxGeometry y="26" width="200" height="94" as="geometry" />
        </mxCell>
        <mxCell id="P1OJqee6ue2MYOzZ1ihU-4" value="" style="line;strokeWidth=1;fillColor=none;align=left;verticalAlign=middle;spacingTop=-1;spacingLeft=3;spacingRight=3;rotatable=0;labelPosition=right;points=[];portConstraint=eastwest;strokeColor=inherit;" parent="P1OJqee6ue2MYOzZ1ihU-2" vertex="1">
          <mxGeometry y="120" width="200" height="8" as="geometry" />
        </mxCell>
        <mxCell id="4dgH-EVyMqO1FlkLiQtf-2" value="TrackingController (Homepage of the app)" style="swimlane;fontStyle=1;align=center;verticalAlign=top;childLayout=stackLayout;horizontal=1;startSize=26;horizontalStack=0;resizeParent=1;resizeParentMax=0;resizeLast=0;collapsible=1;marginBottom=0;whiteSpace=wrap;html=1;" vertex="1" parent="1">
          <mxGeometry x="328" y="358" width="360" height="220" as="geometry" />
        </mxCell>
        <mxCell id="4dgH-EVyMqO1FlkLiQtf-3" value="isTracking: bool&lt;div&gt;measurements: List&amp;lt;Measurement&amp;gt;&lt;/div&gt;&lt;div&gt;currentPosition: Position?&lt;/div&gt;&lt;div&gt;altimeterHeight: double?&lt;/div&gt;&lt;div&gt;locationTimer: Timer?&lt;/div&gt;&lt;div&gt;barometerSubscription: StreamSubscription?&lt;/div&gt;" style="text;strokeColor=none;fillColor=none;align=left;verticalAlign=top;spacingLeft=4;spacingRight=4;overflow=hidden;rotatable=0;points=[[0,0.5],[1,0.5]];portConstraint=eastwest;whiteSpace=wrap;html=1;" vertex="1" parent="4dgH-EVyMqO1FlkLiQtf-2">
          <mxGeometry y="26" width="360" height="104" as="geometry" />
        </mxCell>
        <mxCell id="4dgH-EVyMqO1FlkLiQtf-4" value="" style="line;strokeWidth=1;fillColor=none;align=left;verticalAlign=middle;spacingTop=-1;spacingLeft=3;spacingRight=3;rotatable=0;labelPosition=right;points=[];portConstraint=eastwest;strokeColor=inherit;" vertex="1" parent="4dgH-EVyMqO1FlkLiQtf-2">
          <mxGeometry y="130" width="360" height="8" as="geometry" />
        </mxCell>
        <mxCell id="4dgH-EVyMqO1FlkLiQtf-5" value="startTracking(): void&lt;div&gt;stopTracking(): void&lt;/div&gt;&lt;div&gt;fetchLocation(): Future&amp;lt;void&amp;gt;&lt;/div&gt;&lt;div&gt;saveGPXFile(): Future&amp;lt;void&amp;gt;&lt;/div&gt;" style="text;strokeColor=none;fillColor=none;align=left;verticalAlign=top;spacingLeft=4;spacingRight=4;overflow=hidden;rotatable=0;points=[[0,0.5],[1,0.5]];portConstraint=eastwest;whiteSpace=wrap;html=1;" vertex="1" parent="4dgH-EVyMqO1FlkLiQtf-2">
          <mxGeometry y="138" width="360" height="82" as="geometry" />
        </mxCell>
        <mxCell id="4dgH-EVyMqO1FlkLiQtf-6" style="edgeStyle=orthogonalEdgeStyle;rounded=0;orthogonalLoop=1;jettySize=auto;html=1;entryX=0.5;entryY=0;entryDx=0;entryDy=0;exitX=0.005;exitY=0.258;exitDx=0;exitDy=0;exitPerimeter=0;" edge="1" parent="1" source="4dgH-EVyMqO1FlkLiQtf-3" target="P1OJqee6ue2MYOzZ1ihU-2">
          <mxGeometry relative="1" as="geometry" />
        </mxCell>
      </root>
    </mxGraphModel>
  </diagram>
</mxfile>
